<svg xmlns="http://www.w3.org/2000/svg" viewBox="0 0 420 96" width="420" height="96" role="img" aria-label="Mentible — StudyBuddy Q">
  <title>Mentible — StudyBuddy Q</title>
  <g>
    <rect x="10" y="10" width="76" height="76" rx="18" fill="#0E1116"/>
    <circle cx="44" cy="42" r="20" fill="none" stroke="#7C5CFF" stroke-width="6"/>
    <path d="M54 54 L64 64" stroke="#7C5CFF" stroke-width="6" stroke-linecap="round"/>
    <rect x="40" y="68" width="22" height="6" rx="3" fill="#22D3A6"/>
  </g>
  <g transform="translate(110.00 48.00) scale(0.036000 -0.036000)" fill="#171B22">
    <path transform="translate(0.0 0.0)" d="M66 0V700H311L432 90H450L571 700H816V0H688V603H670L550 0H332L212 603H194V0Z"/>
    <path transform="translate(882.0 0.0)" d="M296 -14Q222 -14 165.5 17.5Q109 49 77.5 106.5Q46 164 46 242V254Q46 332 77.0 389.5Q108 447 164.0 478.5Q220 510 294 510Q367 510 421.0 477.5Q475 445 505.0 387.5Q535 330 535 254V211H174Q176 160 212.0 128.0Q248 96 300 96Q353 96 378.0 119.0Q403 142 416 170L519 116Q505 90 478.5 59.5Q452 29 408.0 7.5Q364 -14 296 -14ZM175 305H407Q403 348 372.5 374.0Q342 400 293 400Q242 400 212.0 374.0Q182 348 175 305Z"/>
    <path transform="translate(1459.0 0.0)" d="M70 0V496H194V431H212Q224 457 257.0 480.5Q290 504 357 504Q415 504 458.5 477.5Q502 451 526.0 404.5Q550 358 550 296V0H424V286Q424 342 396.5 370.0Q369 398 318 398Q260 398 228.0 359.5Q196 321 196 252V0Z"/>
    <path transform="translate(2061.0 0.0)" d="M260 0Q211 0 180.5 30.5Q150 61 150 112V392H26V496H150V650H276V496H412V392H276V134Q276 104 304 104H400V0Z"/>
    <path transform="translate(2517.0 0.0)" d="M70 0V496H196V0ZM133 554Q99 554 75.5 576.0Q52 598 52 634Q52 670 75.5 692.0Q99 714 133 714Q168 714 191.0 692.0Q214 670 214 634Q214 598 191.0 576.0Q168 554 133 554Z"/>
    <path transform="translate(2783.0 0.0)" d="M368 -14Q301 -14 265.0 9.0Q229 32 212 60H194V0H70V700H196V439H214Q225 457 243.5 473.0Q262 489 292.5 499.5Q323 510 368 510Q428 510 479.0 480.5Q530 451 561.0 394.0Q592 337 592 256V240Q592 159 561.0 102.0Q530 45 479.0 15.5Q428 -14 368 -14ZM330 96Q388 96 427.0 133.5Q466 171 466 243V253Q466 325 427.5 362.5Q389 400 330 400Q272 400 233.0 362.5Q194 325 194 253V243Q194 171 233.0 133.5Q272 96 330 96Z"/>
    <path transform="translate(3421.0 0.0)" d="M70 0V700H196V0Z"/>
    <path transform="translate(3687.0 0.0)" d="M296 -14Q222 -14 165.5 17.5Q109 49 77.5 106.5Q46 164 46 242V254Q46 332 77.0 389.5Q108 447 164.0 478.5Q220 510 294 510Q367 510 421.0 477.5Q475 445 505.0 387.5Q535 330 535 254V211H174Q176 160 212.0 128.0Q248 96 300 96Q353 96 378.0 119.0Q403 142 416 170L519 116Q505 90 478.5 59.5Q452 29 408.0 7.5Q364 -14 296 -14ZM175 305H407Q403 348 372.5 374.0Q342 400 293 400Q242 400 212.0 374.0Q182 348 175 305Z"/>
  </g>
  <g transform="translate(112.00 72.00) scale(0.007812 -0.007812)" fill="#7C5CFF">
    <path transform="translate(0.0 0.0)" d="M665 -25Q498 -25 375.0 28.0Q252 81 182.5 179.5Q113 278 106 414H335Q342 333 387.5 280.0Q433 227 506.0 201.0Q579 175 664 175Q759 175 832.5 204.5Q906 234 949.0 288.5Q992 343 992 415Q992 480 954.5 521.5Q917 563 853.5 590.5Q790 618 709 639L535 687Q352 736 249.5 832.0Q147 928 147 1081Q147 1210 216.5 1306.5Q286 1403 405.5 1456.5Q525 1510 675 1510Q828 1510 944.5 1456.5Q1061 1403 1127.5 1310.0Q1194 1217 1197 1098H975Q964 1200 880.5 1256.0Q797 1312 670 1312Q580 1312 513.5 1284.0Q447 1256 410.5 1206.5Q374 1157 374 1094Q374 1023 417.5 979.5Q461 936 523.5 910.5Q586 885 643 870L788 832Q859 814 934.5 783.5Q1010 753 1074.0 704.5Q1138 656 1177.5 584.5Q1217 513 1217 412Q1217 286 1152.0 187.0Q1087 88 963.5 31.5Q840 -25 665 -25Z"/>
    <path transform="translate(1695.0 0.0)" d="M90 1294V1490H1247V1294H784V0H555V1294Z"/>
    <path transform="translate(3416.0 0.0)" d="M759 -23Q580 -23 446.0 46.0Q312 115 238.5 235.5Q165 356 165 512V1490H393V531Q393 430 437.5 352.0Q482 274 564.0 229.0Q646 184 759 184Q871 184 952.5 229.0Q1034 274 1078.0 352.0Q1122 430 1122 531V1490H1351V512Q1351 356 1277.5 235.5Q1204 115 1070.5 46.0Q937 -23 759 -23Z"/>
    <path transform="translate(5316.0 0.0)" d="M649 0H281V200H637Q806 200 918.0 263.0Q1030 326 1086.0 448.5Q1142 571 1142 747Q1142 922 1086.5 1043.0Q1031 1164 921.5 1227.0Q812 1290 649 1290H273V1490H664Q884 1490 1041.0 1401.0Q1198 1312 1282.0 1145.5Q1366 979 1366 747Q1366 514 1281.5 347.0Q1197 180 1036.5 90.0Q876 0 649 0ZM393 1490V0H165V1490Z"/>
    <path transform="translate(7103.0 0.0)" d="M600 0V593L51 1490H317L597 1015Q644 937 679.5 865.0Q715 793 753 687H680Q718 795 753.5 867.5Q789 940 833 1015L1110 1490H1375L828 593V0Z"/>
    <path transform="translate(8913.0 0.0)" d="M165 0V1490H714Q873 1490 977.0 1438.0Q1081 1386 1132.0 1297.5Q1183 1209 1183 1099Q1183 1006 1149.0 942.5Q1115 879 1057.5 840.5Q1000 802 931 784V769Q1006 766 1077.0 721.5Q1148 677 1194.5 596.5Q1241 516 1241 401Q1241 288 1187.5 197.0Q1134 106 1023.0 53.0Q912 0 738 0ZM393 196H715Q875 196 945.0 258.0Q1015 320 1015 412Q1015 484 979.5 542.0Q944 600 879.0 634.5Q814 669 724 669H393ZM393 845H692Q767 845 828.0 874.0Q889 903 924.0 956.0Q959 1009 959 1080Q959 1172 895.0 1233.5Q831 1295 698 1295H393Z"/>
    <path transform="translate(10642.0 0.0)" d="M759 -23Q580 -23 446.0 46.0Q312 115 238.5 235.5Q165 356 165 512V1490H393V531Q393 430 437.5 352.0Q482 274 564.0 229.0Q646 184 759 184Q871 184 952.5 229.0Q1034 274 1078.0 352.0Q1122 430 1122 531V1490H1351V512Q1351 356 1277.5 235.5Q1204 115 1070.5 46.0Q937 -23 759 -23Z"/>
    <path transform="translate(12542.0 0.0)" d="M649 0H281V200H637Q806 200 918.0 263.0Q1030 326 1086.0 448.5Q1142 571 1142 747Q1142 922 1086.5 1043.0Q1031 1164 921.5 1227.0Q812 1290 649 1290H273V1490H664Q884 1490 1041.0 1401.0Q1198 1312 1282.0 1145.5Q1366 979 1366 747Q1366 514 1281.5 347.0Q1197 180 1036.5 90.0Q876 0 649 0ZM393 1490V0H165V1490Z"/>
    <path transform="translate(14404.0 0.0)" d="M649 0H281V200H637Q806 200 918.0 263.0Q1030 326 1086.0 448.5Q1142 571 1142 747Q1142 922 1086.5 1043.0Q1031 1164 921.5 1227.0Q812 1290 649 1290H273V1490H664Q884 1490 1041.0 1401.0Q1198 1312 1282.0 1145.5Q1366 979 1366 747Q1366 514 1281.5 347.0Q1197 180 1036.5 90.0Q876 0 649 0ZM393 1490V0H165V1490Z"/>
    <path transform="translate(16191.0 0.0)" d="M600 0V593L51 1490H317L597 1015Q644 937 679.5 865.0Q715 793 753 687H680Q718 795 753.5 867.5Q789 940 833 1015L1110 1490H1375L828 593V0Z"/>
    <path transform="translate(18931.0 0.0)" d="M713 481H932L1089 277L1158 190L1406 -135H1179L1014 81L959 158ZM786 -20Q593 -20 440.5 71.5Q288 163 200.5 334.5Q113 506 113 744Q113 983 200.5 1154.5Q288 1326 440.5 1418.0Q593 1510 786 1510Q979 1510 1130.5 1418.0Q1282 1326 1369.5 1154.5Q1457 983 1457 744Q1457 506 1369.5 334.5Q1282 163 1130.5 71.5Q979 -20 786 -20ZM786 188Q913 188 1013.5 251.5Q1114 315 1172.5 439.5Q1231 564 1231 744Q1231 926 1172.5 1050.5Q1114 1175 1013.5 1238.5Q913 1302 786 1302Q658 1302 557.0 1238.0Q456 1174 397.5 1049.5Q339 925 339 744Q339 564 397.5 440.0Q456 316 557.0 252.0Q658 188 786 188Z"/>
    <path transform="translate(21819.0 0.0)" d="M311 560Q249 560 206.0 603.0Q163 646 163 707Q163 769 206.0 811.5Q249 854 311 854Q372 854 415.0 811.5Q458 769 458 707Q458 646 415.0 603.0Q372 560 311 560Z"/>
    <path transform="translate(23754.0 0.0)" d="M165 0V1490H714Q873 1490 977.0 1438.0Q1081 1386 1132.0 1297.5Q1183 1209 1183 1099Q1183 1006 1149.0 942.5Q1115 879 1057.5 840.5Q1000 802 931 784V769Q1006 766 1077.0 721.5Q1148 677 1194.5 596.5Q1241 516 1241 401Q1241 288 1187.5 197.0Q1134 106 1023.0 53.0Q912 0 738 0ZM393 196H715Q875 196 945.0 258.0Q1015 320 1015 412Q1015 484 979.5 542.0Q944 600 879.0 634.5Q814 669 724 669H393ZM393 845H692Q767 845 828.0 874.0Q889 903 924.0 956.0Q959 1009 959 1080Q959 1172 895.0 1233.5Q831 1295 698 1295H393Z"/>
    <path transform="translate(25483.0 0.0)" d="M600 0V593L51 1490H317L597 1015Q644 937 679.5 865.0Q715 793 753 687H680Q718 795 753.5 867.5Q789 940 833 1015L1110 1490H1375L828 593V0Z"/>
    <path transform="translate(27218.0 0.0)" d="M786 -20Q593 -20 440.5 71.5Q288 163 200.5 334.5Q113 506 113 744Q113 983 200.5 1154.5Q288 1326 440.5 1418.0Q593 1510 786 1510Q979 1510 1130.5 1418.0Q1282 1326 1369.5 1154.5Q1457 983 1457 744Q1457 506 1369.5 334.5Q1282 163 1130.5 71.5Q979 -20 786 -20ZM786 188Q913 188 1013.5 251.5Q1114 315 1172.5 439.5Q1231 564 1231 744Q1231 926 1172.5 1050.5Q1114 1175 1013.5 1238.5Q913 1302 786 1302Q658 1302 557.0 1238.0Q456 1174 397.5 1049.5Q339 925 339 744Q339 564 397.5 440.0Q456 316 557.0 252.0Q658 188 786 188Z"/>
    <path transform="translate(29172.0 0.0)" d="M327 396V624Q376 699 424.5 765.0Q473 831 526.0 895.0Q579 959 639 1027L1057 1490H1347L714 793L699 796ZM165 0V1490H393V1014L389 674L393 562V0ZM1083 0 576 729 719 904 1353 0Z"/>
  </g>
</svg>
